<svg viewBox="0 0 100 100" xmlns="http://www.w3.org/2000/svg"><path d="M86.5,58.5Q73,67,66,72Q59,77,48,83Q37,89,30,79Q23,69,28.5,59.5Q34,50,30,41.5Q26,33,32.5,25Q39,17,47.5,24Q56,31,67,30.5Q78,30,89,40Q100,50,86.5,58.5Z" stroke="none" fill="#a4fc26"></path><path d="M86.5,58.5Q73,67,66,72Q59,77,48,83Q37,89,30,79Q23,69,28.5,59.5Q34,50,30,41.5Q26,33,32.5,25Q39,17,47.5,24Q56,31,67,30.5Q78,30,89,40Q100,50,86.5,58.5Z" transform="translate(2.32 -7.5)" stroke="#6ca818" stroke-width="1" fill="none"></path></svg>