<svg xmlns="http://www.w3.org/2000/svg" width="400" height="340"><linearGradient id="grad1" x1="0%" y1="0%" x2="100%" y2="0%"><stop offset="0%" style="stop-color:#7dc610;stop-opacity:1" /><stop offset="100%" style="stop-color:#70dc04;stop-opacity:1" /></linearGradient><path fill="url(#grad1)" d="M316.8449459293211,276.0765534939912C312.8352204454157,289.0909460455931,279.1347637378171,286.25138477081725,263.89911940004595,298.0863553096117C248.6634750622748,309.9213258484061,240.8371573571856,343.1649978760197,225.4310799026943,347.0863767267578C210.02500244820303,351.0077555774959,188.02585107734356,330.40043694024297,171.46265467309823,321.61462841404045C154.8994582688529,312.82881988783794,140.41978723120093,306.18283077443783,126.05190147722226,294.3715255695427C111.68401572324359,282.5602203646476,83.66170359909755,266.19781330318347,85.25534014922623,250.74679718466967C86.8489766993549,235.2957810661559,125.79502334955751,216.51030902747286,135.61372077799433,201.66542885846007C145.43241820643115,186.8205486894473,136.27868611789432,170.5106795453442,144.1675247198471,161.67751617059298C152.0563633217999,152.84435279584176,170.15547183090519,153.9285056635616,182.94675238971098,148.66644860995282C195.73803294851677,143.40439155634405,208.42198228144974,129.7835783035619,220.91520807268193,130.1051738489403C233.40843386391413,130.42676939431868,247.29983316718958,142.13494337729784,257.9061071371041,150.59602188222308C268.5123811070186,159.05710038714832,279.5442910311066,169.30431519219565,284.552851892169,180.8716448784918C289.56141275323137,192.43897456478794,282.5754566306196,204.1325152307501,287.9574723034783,220C293.339487976337,235.8674847692499,320.8546714132265,263.06216094238926,316.8449459293211,276.0765534939912" stroke="none" stroke-width="3"/></svg>